<svg id="Layer_1" data-name="Layer 1" xmlns="http://www.w3.org/2000/svg" viewBox="0 0 452.455 342.162"><defs><style>.cls-1{fill:#fe9e00;}.cls-2{fill:#fec827;}</style></defs><title>directory</title><path class="cls-1" d="M88.294,267.861a36.081,36.081,0,0,1,9.866-20.047A64.113,64.113,0,0,1,111.2,237.6c6.347-2.961,13.145-4.038,20.021-4.793l19.988-.008,20.006-.007,19.988.007,20.006-.007,19.989.009c4.445-.441,7.65,1.54,10.543,4.793,2.916,3.279,6.3,6.144,9.476,9.19l1.022,1.04c6.078,3.483,10.078,9.244,15.143,13.837,1.574,1.428,3,3.02,4.577,4.449a20.719,20.719,0,0,1,1.571,1.523c4.645,6.895,11.532,7.39,18.871,6.612,6.314-.248,12.619-.336,18.925.039a162.375,162.375,0,0,1,19.83-.009,166.1,166.1,0,0,1,19.982,0,166.542,166.542,0,0,1,20,0,166.559,166.559,0,0,1,20,0,166.343,166.343,0,0,1,19.984,0,164.435,164.435,0,0,1,19.869,0,180.626,180.626,0,0,1,19.2-.019c7.236.276,14.222,1.566,20.6,5.23a43.728,43.728,0,0,1,11.164,8.585,41.556,41.556,0,0,1,9.545,14.693c.691,2,1.421,3.994,2.027,6.031,1.717,6.348,1.457,12.812,1.176,19.281.147,4,.99,8.073-1.111,11.865-3.087,2.355-6.713,1.581-10.138,1.583q-135.73.065-271.463,0c-6.231,0-12.3.584-18.146,2.858-13.925,5.419-22.147,15.8-25,30.153-5.657,28.431-10.516,57.016-15.722,85.534q-9.918,54.332-19.8,108.67c-.662,3.628-1.591,6.677-6.342,5.211-5.142.2-9.778-1.822-14.533-3.324l-6.265-3.7c-5.733-1.569-8.545-6.5-12.019-10.605a37.673,37.673,0,0,1-3.152-5.088c-.832-1.6-1.336-3.338-2.061-4.99-1.094-3.535-2.344-7.036-2.188-10.828q0-61.895-.016-123.771c-.066-45.4.085-90.8.039-136.195C86.782,272.862,86.185,270.072,88.294,267.861Z" transform="translate(-86.705 -232.739)"/><path class="cls-2" d="M126.98,573.958c3.052.093,3.894-1.3,4.447-4.408,4.667-26.258,9.776-52.437,14.533-78.679,4.9-27.056,9.515-54.166,14.348-81.236,2.272-12.721,4.094-25.575,7.313-38.061,4.948-19.19,20.023-31.594,40.278-31.649,92.45-.252,184.9-.11,277.352-.112,2.665,0,5.33-.019,8-.029,4.077-2.934,8.238-.789,12.353-.152a19.349,19.349,0,0,1,5.143,1.689,49.961,49.961,0,0,1,10.655,5.593,57.259,57.259,0,0,1,10.7,11.672,43.131,43.131,0,0,1,4.7,9.353c2.712,6.493,2.748,13.226,1.818,20.049-.6,6.675-2.4,13.153-3.224,19.791-2.448,14.04-5.214,28.021-7.656,42.061-.766,6.061-2.1,12.023-3.145,18.037-1.041,7.106-2.528,14.133-3.78,21.2-1.019,6.238-2.343,12.421-3.306,18.668-1.539,6.593-2.127,13.368-3.8,19.934-1.844,10.985-3.093,22.185-10.6,31.237-2.745,3.31-5.258,6.968-9.942,7.845l-3.064,1.941a59.342,59.342,0,0,1-18.951,5.932l-19.986.264H151.238l-20.043-.014Z" transform="translate(-86.705 -232.739)"/></svg>