<svg id="Layer_1" data-name="Layer 1" xmlns="http://www.w3.org/2000/svg" viewBox="0 0 374.728 511.901"><defs><style>.cls-1{fill:#518df7;}.cls-2{fill:#abd0fb;}.cls-3{fill:#fefefe;}.cls-4{fill:#3a5bbb;}</style></defs><title>document</title><path class="cls-1" d="M455.93,676.89H139.055c-5.929-1.369-12.073-1.813-16.862-6.553-6.641-6.573-11.335-13.884-11.46-23.533-.019-1.5-.035-3-.035-4.5q-.01-221.367-.063-442.732c-.005-8.265,1.441-15.766,6.524-22.518s11.4-11.049,20.006-11.543c.981-.056,2.015.133,2.89-.525h202.92c2.663,3.251,2.331,7.17,2.337,10.964.049,31.3-.081,62.6.078,93.9.06,11.874,4.4,21.737,14.827,28.3a38.762,38.762,0,0,0,10.166,4.036c10.854,6.888,23.324,10.082,35.006,15.069,24.3,10.372,48.809,20.239,73.268,30.227a10.816,10.816,0,0,1,6.166,5.449,40.268,40.268,0,0,1,.456,7.98q.027,141.44.084,282.88c.016,12.011-4.818,21.061-13.915,28.419C466.826,675.95,461.148,675.5,455.93,676.89Z" transform="translate(-110.635 -164.989)"/><path class="cls-2" d="M343.974,164.989c1.455,1.594,2.85,3.247,4.373,4.772q65.159,65.2,130.326,130.394c1.517,1.518,2.852,3.217,4.271,4.831-2.227,3.251-5.694,2.269-8.68,2.283-28.395.139-56.79.024-85.186.107a68.5,68.5,0,0,1-19.132-2.473c-5.263-2-10.672-3.609-15.061-7.47-8.172-7.189-11.837-16.26-11.842-27q-.024-52.725-.068-105.448Z" transform="translate(-110.635 -164.989)"/><path class="cls-3" d="M297.448,443c-29.631,0-59.262-.1-88.892.1-4.414.03-5.935-1.116-5.5-5.549a82.98,82.98,0,0,0,.038-11.978c-.137-2.9,1.043-3.944,3.789-3.623a17.269,17.269,0,0,0,2,.01q89.142,0,178.284-.1c4.587-.012,6.234,1.2,5.745,5.792a51.938,51.938,0,0,0,0,10.475c.4,4.079-1.252,4.967-5.066,4.949C357.709,442.942,327.578,443,297.448,443Z" transform="translate(-110.635 -164.989)"/><path class="cls-3" d="M297.664,490.033c-29.793,0-59.587-.083-89.379.094-4.2.025-5.587-1.188-5.22-5.322a70.682,70.682,0,0,0,.009-11.475c-.273-3.649,1.257-4.4,4.6-4.4q90.379.126,180.757-.009c3.536-.006,4.68,1.081,4.463,4.543a90.985,90.985,0,0,0,.007,12.477c.3,3.99-1.839,4.138-4.861,4.129-23.8-.075-47.6-.041-71.4-.041Z" transform="translate(-110.635 -164.989)"/><path class="cls-3" d="M297.691,537.073c-29.79,0-59.58-.08-89.369.091-4.158.023-5.658-1.123-5.254-5.3a50.269,50.269,0,0,0-.01-10.471c-.522-4.583,1.338-5.472,5.6-5.462q85.874.2,171.748.092c3,0,6,.118,8.986-.029,2.6-.128,3.558.891,3.476,3.48a120.275,120.275,0,0,0,.042,12.977c.295,3.885-1.238,4.722-4.852,4.695-20.469-.153-40.94-.073-61.41-.073Z" transform="translate(-110.635 -164.989)"/><path class="cls-3" d="M270.632,584.116c-20.818,0-41.637-.08-62.454.072-3.773.028-5.468-.833-5.118-4.951a99.434,99.434,0,0,0,.035-12.485c-.118-2.84.962-3.826,3.759-3.735,4.825.158,9.658.041,14.488.041,37.14,0,74.279.062,111.418-.089,4.077-.016,5.711.952,5.308,5.218a69.553,69.553,0,0,0-.014,11.483c.252,3.5-.966,4.551-4.469,4.517-16.653-.162-33.308-.071-49.962-.071Z" transform="translate(-110.635 -164.989)"/><path class="cls-4" d="M369.946,304.9l113,.083c1.317,4.206.627,8.53.575,12.781-.14,11.389.7,22.793-.432,34.167q-53.434-22.023-106.864-44.059C374.086,306.993,372.036,305.9,369.946,304.9Z" transform="translate(-110.635 -164.989)"/></svg>