<?xml version="1.0" encoding="utf-8"?>
<!-- Generator: Adobe Illustrator 24.0.3, SVG Export Plug-In . SVG Version: 6.00 Build 0)  -->
<svg version="1.1" id="Layer_1" xmlns="http://www.w3.org/2000/svg" xmlns:xlink="http://www.w3.org/1999/xlink" x="0px" y="0px"
	 viewBox="0 0 97.15 103.91" style="enable-background:new 0 0 97.15 103.91;" xml:space="preserve">
<style type="text/css">
	.st0{fill:#FEFEFE;}
	.st1{fill:#33D075;}
	.st2{fill:#28A75D;}
	.st3{fill:#228E4F;}
	.st4{fill:#176237;}
</style>
<g>
	<path class="st0" d="M109.18,60.5c0,19.57-0.02,39.15,0.04,58.72c0,1.48-0.3,1.78-1.78,1.78c-35.81-0.05-71.62-0.05-107.44,0
		c-1.48,0-1.78-0.3-1.78-1.78c0.05-39.14,0.05-78.29,0-117.43C-1.78,0.3-1.48,0,0,0c35.81,0.05,71.62,0.05,107.44,0
		c1.48,0,1.79,0.3,1.78,1.78C109.16,21.35,109.18,40.93,109.18,60.5z"/>
	<path class="st1" d="M35.13,93.99C20.72,88.34,11.96,77.83,9.75,62.6c-3.63-25.04,15.4-46.12,40.64-45.63
		C69.38,17.33,85.71,32.1,88.37,51.3c3.33,24.08-15.49,45.57-39.66,45.28c-0.25,0-0.49-0.05-0.74-0.08
		c-0.81-0.82-1.33-1.79-1.5-2.94c-0.03-0.94-0.51-1.74-0.84-2.58c-2.89-7.59-3.41-15.34-2.11-23.37c0.84-5.2,2.14-10.16,4.34-14.92
		c0.89-1.93,1.57-4.64,3.83-4.75c1.93-0.1,2.97,2.39,3.94,4.08c1.8,3.15,3.89,6.14,5.11,9.63c1.66,4.74,2.83,9.32-2.2,13
		c5.99-1.07,10-4.4,12.18-9.97c2.02-5.16,1.04-9.86-2.04-14.3c-0.65-0.94-2.18-1.97-0.95-3.15c1.07-1.03,2.33,0.11,3.34,0.78
		c4.66,3.08,7.67,7.04,6.66,13.61c1.59-2.14,2.61-3.99,2.88-6.07c1.31-10.11-4.61-17.2-13.62-18.56c-0.63-0.09-1.48-0.06-1.55-0.92
		c-0.06-0.77,0.7-1.02,1.27-1.35c1.31-0.74,2.82-0.86,4.73-1.29c-2.41-2.43-5.15-3.27-7.95-3.19c-2.11,0.06-3.16-0.08-4.06-2.32
		c-1.1-2.73-3.39-4.74-6.62-6.08c0.44,2.64,1.68,4.65,1.31,6.94c-0.13,0.79,0.12,1.85-0.88,2.11c-0.85,0.22-1.23-0.68-1.63-1.28
		c-2.81-4.3-6.9-6.55-11.85-7.4c-2.13-0.37-4.09,0.35-5.99,1.2c-2.99,1.98-6.5,3.35-8.19,7.1c0.83-0.43,1.5-0.97,2.32-1.14
		c4.36-1.34,8.18-0.15,11.71,2.44c0.47,0.21,0.9,0.5,1.3,0.84c0.23,0.23-0.03-0.09,0.19,0.16c0.62,0.73,1.83,1.37,1.36,2.42
		c-0.51,1.13-1.74,0.47-2.69,0.39c-10.92-0.83-19.88,9.34-16.23,20.83c0.22,0.68,0.44,1.43,1.41,2.08
		c-0.54-5.82,3.61-7.99,7.58-10.3c4.31-2.15,8.93-2.92,13.68-3.05c0.89-0.02,1.98-0.1,2.41,0.89c0.42,0.99-0.42,1.68-1.01,2.37
		c-5.27,6.21-9.52,13.01-11.25,21.05c-1.51,6.98-2.4,14.05-0.93,21.2C35.65,91.78,36,92.95,35.13,93.99z"/>
	<path d="M40.53,32.91c-0.31-0.2-0.62-0.4-0.93-0.6c-3.55-3.04-7.49-4.14-11.99-2.41c-1.01,0.65-2.02,1.3-3.57,2.3
		c1.64-4.21,4.31-6.56,7.64-8.26c0.51-0.26,1.08-0.4,1.44-0.89c8.86-2.64,15.34,0.6,20.2,8.26c0.43-2.38,0.77-4.65-0.1-6.95
		c-0.24-0.64-0.92-1.38-0.05-1.99c0.74-0.52,1.52,0,2.06,0.41c2.2,1.64,4.32,3.44,4.9,6.3c0.26,1.29,0.94,1.48,1.93,1.21
		c3.25-0.89,5.95,0.54,8.65,1.98c0.48,0.26,1.06,0.63,0.79,1.36c-0.22,0.6-0.8,0.53-1.27,0.49c-2.01-0.16-3.53,0.83-5.06,2.01
		c2.61,0.59,5.07,1.18,7.43,2.38c7.76,3.94,10.91,13.91,6.59,21.38c-0.23,0.4-0.19,1.05-0.88,1c-0.67-0.05-0.64-0.6-0.71-1.1
		c-1.2-8.41-3.92-11.45-12.06-13.6c2.28,2.89,4.91,5.52,5.89,9.46c1.51,6.02-1.04,13.28-6.32,16.76c-1.51,1-3.12,1.83-4.85,2.42
		c-0.45,0.15-1.02,0.26-1.37-0.23c-0.37-0.53-0.05-0.87,0.4-1.2c3.29-2.49,2.96-5.96,2.01-9.23C59.69,58.58,56.7,53.62,53.18,49
		c-1.47-1.93-1.9-1.93-3.17,0.17c-2.98,4.91-4.73,10.26-5.89,15.88c-0.82,4.02-0.78,8.04-0.88,12.08
		c-0.14,5.82,1.3,11.25,3.74,16.47c-0.08,1.1,1.27,1.72,0.98,2.89c-4.45,0.01-8.72-0.84-12.84-2.51
		c-1.19-6.98-1.23-13.91-0.21-20.96c1.21-8.27,4.82-15.33,9.58-21.96c0.91-1.27,2.01-2.41,3.02-3.61c0.31-0.37,0.88-0.67,0.72-1.21
		c-0.22-0.75-0.95-0.53-1.48-0.51c-4.91,0.13-9.65,1.12-14.18,3.03c-1.5,0.67-2.96,1.36-4.27,2.4c-1.85,1.47-3.15,3.11-2.95,5.62
		c0.04,0.59,0.31,1.46-0.66,1.6c-0.78,0.11-0.82-0.67-1.06-1.16c-2.38-4.82-1.08-12.2,2.51-16.21c4.17-4.67,9.22-6.37,15.31-5.4
		c0.46,0.07,0.97,0.34,1.53-0.17C42.5,34.3,41.54,33.59,40.53,32.91z"/>
	<path class="st2" d="M46.99,93.61c-2.55-3.24-3.43-7.19-3.8-11.05c-1.09-11.3,0.12-22.29,5.77-32.45c2.34-4.2,2.53-4.26,5.35-0.22
		c2.88,4.14,5.54,8.41,7.07,13.25c1.27,4.03,1.76,7.99-2.15,11.18c4.68-0.77,8.32-3.28,10.31-7.33c4.28-8.76,1.51-15.96-5.97-21.83
		c4.02,0.66,7.47,2.1,10.38,4.83c3.02,2.84,4.51,6.22,3.92,10.7c4-4.46,3.62-11.38,0.66-16.16c-3.23-5.21-8.21-7.69-14.92-7.72
		c2.29-2.43,4.68-3.11,7.38-3.12c-1.35-2.23-5.24-3.7-8.42-3.03c-1.69,0.36-2.32,0.21-2.87-1.74c-0.88-3.08-3.06-5.38-6.65-6.61
		c1.39,3.58,1.24,6.94,0.86,10.45c-1.17-0.19-1.24-1.09-1.52-1.66c-2.63-5.45-9.21-9.59-16.28-8.27c-0.97,0.18-1.98,0.14-2.97,0.21
		c4.58-3.22,12.16-0.78,15.67,2.43c1.63,1.49,3.21,3.03,4.41,5.6c0.59-3.15,0.22-5.57-0.88-7.91c-0.28-0.6-0.65-1.31-0.09-1.85
		c0.58-0.57,1.36-0.03,1.81,0.26c2.8,1.77,5.54,3.7,6.38,7.19c0.29,1.2,0.9,1.19,1.8,0.96c3.34-0.87,6.07,0.82,8.85,2.19
		c0.58,0.28,1.4,0.84,1.08,1.74c-0.26,0.73-1.04,0.76-1.71,0.7c-1.75-0.15-3.11,0.85-4.65,1.65c2.65,0.18,5.02,1.04,7.28,2.31
		c5.16,2.89,7.89,7.23,8.3,13.16c0.24,3.43-0.5,6.54-2.19,9.47c-0.41,0.71-1.01,1.73-1.77,1.5c-1.13-0.34-0.31-1.35-0.19-2.1
		c0.73-4.75-1.6-8.13-5.09-10.84c-1.22-0.94-2.42-2.27-4.27-2.13c-0.21,0.99,0.43,1.45,0.88,2c8.21,10.03,1.67,24-9.97,26.13
		c-0.55,0.1-1.2,0.44-1.54-0.24c-0.27-0.55,0.25-0.98,0.63-1.21c5.02-3.06,4.07-7.48,2.44-11.78c-1.83-4.85-4.55-9.26-7.73-13.39
		c-1.01-1.31-1.39-0.59-1.96,0.18c-2.43,3.29-3.9,7.11-4.92,10.93c-1.48,5.53-2.48,11.22-2.2,17.06c0.25,5.3,1.14,10.4,3.46,15.18
		C47.2,92.77,47.24,93.14,46.99,93.61z"/>
	<path class="st3" d="M40.53,32.91c1.85,0.5,2.98,1.8,4.22,3.85c-8.55-2.29-15.38-0.6-20.06,6.82c-2.24,3.54-2.83,10.33,0.14,14.9
		c-0.15-5.77,2.88-8.55,7.74-9.72c-0.53,0.83-1.51,0.95-2.25,1.45c-2.74,1.86-5.23,3.87-4.73,7.73c0.08,0.59,0.31,1.47-0.58,1.68
		c-0.86,0.2-1-0.68-1.31-1.23c-2.99-5.34-1.84-13.25,2.29-17.77c4.41-4.82,9.73-6.5,16.11-5.31C42.12,34.09,40.76,33.87,40.53,32.91
		z"/>
	<path class="st4" d="M27.61,29.9c1.46-1.89,3.55-1.16,5.29-0.98c2.56,0.27,5.19,0.85,6.71,3.39c-1.74-0.28-2.83-1.78-4.48-2.33
		C32.58,29.13,30.11,29.5,27.61,29.9z"/>
</g>
</svg>
