<svg id="Capa_1" enable-background="new 0 0 512.024 512.024" height="50" viewBox="0 0 512.024 512.024" width="512" xmlns="http://www.w3.org/2000/svg"><g><path d="m236.67 338.504c-5.674-.252-10.97-3.23-13.51-8.48l-3.93-8.14-20.392 39.64h-79.943c-8.284 0-15 6.716-15 15s6.716 15 15 15h5.451c-30.821 24.859-50.576 62.913-50.576 105.5 0 8.284 6.716 15 15 15h241c8.284 0 15-6.716 15-15 0-42.587-19.755-80.641-50.576-105.5h5.451c8.284 0 15-6.716 15-15s-6.716-15-15-15h-67.067l12.462-24.22s-6.04 1.303-8.37 1.2z"/><path d="m369.82 61.974c7.36 3.79 10.26 12.83 6.47 20.2l-131.25 255.13 68.81-11.59c4.7-.79 8.75-3.77 10.9-8.02l105.2-208.12c9.16-17.9 10.8-38.28 4.63-57.41-6.18-19.13-19.44-34.71-37.33-43.86-17.89-9.16-38.28-10.8-57.41-4.63-19.12 6.18-34.7 19.44-43.89 37.39l-105.24 208.19c-2.11 4.17-2.16 9.08-.12 13.29l28.64 59.34 130.39-253.44c3.79-7.36 12.83-10.26 20.2-6.47z"/></g></svg>